<svg viewBox="0 0 211.7 211.7" xmlns="http://www.w3.org/2000/svg"><circle transform="matrix(0,-1,-1,0,0,0)" cx="-105.8" cy="-105.8" r="105.8" stroke-width=".3213"/><g fill="#fff"><g transform="translate(0 -9.425)" stroke-width=".265" aria-label="Estd. 1971"><path d="m79.92 208.5-5.234-1.473 2.558-9.093 5.234 1.473-0.4443 1.579-3.311-0.9316-0.5625 1.999 3.082 0.867-0.4443 1.579-3.082-0.8671-0.6593 2.343 3.311 0.9316z"/><path d="m87.06 207.9q-0.2265 1.074-1.113 1.496-0.8708 0.4113-2.372 0.0948-0.7379-0.1555-1.247-0.3709-0.5116-0.2025-0.996-0.5344l0.3356-1.592q0.515 0.379 1.14 0.6864t1.13 0.4138q0.5696 0.1201 0.838 8.9e-4 0.2814-0.1164 0.3387-0.3883 0.0382-0.1812-0.03535-0.3454-0.0606-0.1615-0.346-0.4109-0.2854-0.2494-0.9115-0.6788-0.6002-0.4239-0.97-0.7858-0.3672-0.3748-0.4924-0.8068-0.1225-0.445 3e-3 -1.04 0.2074-0.9838 1.075-1.315 0.8674-0.3309 2.136-0.0635 0.6602 0.1392 1.228 0.3941t1.14 0.6864l-0.8745 1.262q-0.4714-0.3292-0.9074-0.5698-0.4333-0.2536-0.9122-0.3545-0.8544-0.1801-0.9526 0.2859-0.03547 0.1683 0.03808 0.3325 0.08922 0.154 0.3672 0.3748 0.2909 0.2236 0.8577 0.6134 0.5566 0.3742 0.9394 0.7388 0.3856 0.3517 0.534 0.8021 0.1641 0.4402 0.0304 1.074z"/><path d="m91.36 209.2q0.327 0.0492 0.6378 0.0291t0.6254-0.0665l-0.2185 1.452q-0.3336 0.0836-0.8184 0.1043-0.4736 0.0358-1.023-0.0469-0.641-0.0964-1.12-0.3825-0.4656-0.2841-0.6898-0.8396-0.2091-0.5666-0.07131-1.482l0.5176-3.441-0.9288-0.1397 0.124-0.8242 1.171-0.4927 0.7889-1.42 1.243 0.187-0.2283 1.518 2.002 0.3011-0.2204 1.465-2.002-0.3011-0.5176 3.441q-0.06101 0.4055 0.143 0.6503 0.206 0.2317 0.5853 0.2887z"/><path d="m96.09 211.4q-1.2-0.0996-1.887-1.099-0.6727-1.012-0.5206-2.844 0.1532-1.846 0.9966-2.732 0.8434-0.8858 2.083-0.7829 0.7778 0.0645 1.254 0.4094 0.4758 0.3448 0.7287 0.8171l0.06592 5e-3q-0.02205-0.2142-0.04196-0.6141-0.01882-0.4131 0.01619-0.835l0.1915-2.307 1.964 0.163-0.8315 10.02-1.503-0.1247-0.3046-0.9678-0.0791-7e-3q-0.3272 0.4242-0.8413 0.7001-0.513 0.2628-1.291 0.1982zm0.8158-1.512q0.8174 0.0678 1.186-0.3794 0.3701-0.4604 0.4631-1.422l0.01751-0.2109q0.08753-1.055-0.1961-1.636-0.2705-0.58-1.141-0.6522-0.646-0.0536-1.062 0.4827-0.4151 0.5231-0.5026 1.578-0.08753 1.055 0.2368 1.626 0.3254 0.558 0.9978 0.6138z"/><path d="m101.9 210.7q0.0158-0.6083 0.3526-0.8378 0.3372-0.2427 0.8132-0.2303 0.4629 0.012 0.7869 0.2719 0.3244 0.2466 0.3086 0.855-0.0151 0.5819-0.3526 0.8378-0.3372 0.2427-0.8 0.2306-0.4761-0.0124-0.8002-0.2723-0.3237-0.2731-0.3086-0.855z"/><path d="m113.8 211.4-1.994 0.1172-0.3204-5.454q-0.0202-0.3434-0.0396-0.8988-6e-3 -0.5562-0.0178-0.9796-0.0614 0.0831-0.2735 0.3076-0.1997 0.2105-0.3752 0.3798l-1.032 0.9352-1.035-1.145 2.896-2.595 1.638-0.0962z"/><path d="m122.2 205q0.1045 0.8002 0.0909 1.616-0.0153 0.8025-0.2245 1.55-0.1978 0.7329-0.6637 1.354-0.4545 0.6063-1.24 1.029-0.7739 0.4079-1.941 0.5603-0.2755 0.036-0.6462 0.0577-0.369 0.0348-0.6251 0.0149l-0.2072-1.587q0.2692 0.0182 0.5629 0.0199 0.2937 2e-3 0.5823-0.036 1.167-0.1524 1.749-0.6019 0.5931-0.4643 0.7698-1.154 0.1767-0.6902 0.103-1.561l-0.0787 0.0103q-0.2155 0.4951-0.6336 0.8699-0.4049 0.373-1.297 0.4895-1.194 0.1558-2.016-0.5239-0.8225-0.6798-1.008-2.096-0.1987-1.522 0.541-2.499 0.7528-0.9788 2.222-1.171 0.9576-0.125 1.79 0.2199 0.8305 0.3318 1.409 1.19 0.5773 0.8452 0.7606 2.249zm-3.713-2.077q-0.5772 0.0754-0.8931 0.5168-0.3159 0.4415-0.2046 1.294 0.0891 0.6821 0.4553 1.035 0.3662 0.3524 1.009 0.2685 0.446-0.0582 0.7351-0.2961 0.3023-0.2396 0.4482-0.5522 0.1443-0.3257 0.1032-0.6405-0.0565-0.4329-0.2687-0.8321-0.2122-0.3992-0.5613-0.6205-0.3508-0.2344-0.823-0.1727z"/><path d="m124.9 210 1.919-8.318-4.562 0.9321-0.3363-1.646 6.636-1.356 0.2516 1.231-1.861 8.738z"/><path d="m136.1 207.3-1.923 0.5396-1.476-5.261q-0.0929-0.3312-0.2302-0.8697-0.1246-0.5421-0.2262-0.9533-0.0423 0.0943-0.2016 0.3588-0.1502 0.2482-0.2856 0.4511l-0.8086 1.134-1.255-0.8983 2.276-3.153 1.579-0.4431z"/></g><circle transform="rotate(90)" cx="105.8" cy="-105.8" r="79.38" stroke-width=".2621"/><g transform="matrix(1.076 0 0 1 -7.206 -9.695)" stroke-width=".265" aria-label="Department of Photography"><path d="m32 65.13q2.15 1.053 2.644 2.813 0.4874 1.741-0.5894 3.939l-1.176 2.4-8.482-4.156 1.304-2.661q0.6519-1.331 1.604-2.072 0.9583-0.7532 2.147-0.8338 1.182-0.09831 2.549 0.571zm-0.8663 1.888q-1.414-0.6926-2.37-0.395-0.9679 0.2918-1.544 1.468l-0.4715 0.9623 5.524 2.706 0.3783-0.7722q1.275-2.602-1.517-3.97z"/><path d="m32.66 59.25q0.8025-1.261 1.997-1.536 1.183-0.2821 2.511 0.563l0.8036 0.5113-2.5 3.929q0.7174 0.4251 1.368 0.2901 0.6575-0.1461 1.105-0.8493 0.3764-0.5916 0.5702-1.143 0.1826-0.5581 0.2637-1.228l1.284 0.8167q-0.06084 0.5885-0.28 1.155-0.2009 0.5621-0.6483 1.265-0.5823 0.9152-1.365 1.405-0.7934 0.483-1.741 0.4445t-1.997-0.7061q-1.071-0.6818-1.547-1.486-0.48-0.8228-0.4252-1.697 0.05474-0.8746 0.6016-1.734zm1.19 0.7416q-0.3054 0.4799-0.1988 1.002 0.1137 0.5114 0.7367 0.9862l1.484-2.333q-0.5652-0.3439-1.1-0.2921-0.5459 0.04468-0.9223 0.6362z"/><path d="m38.27 51.44q0.7543-0.9552 1.969-0.9567 1.204-0.0097 2.648 1.13 1.443 1.14 1.717 2.351 0.2638 1.203-0.4904 2.158-0.4837 0.6126-0.9887 0.8038-0.5154 0.183-0.9761 0.1901l-0.06559 0.08306q0.5017 0.2613 0.8962 0.5728l2.284 1.804-1.222 1.547-8.161-6.444 0.992-1.256 0.9093 0.3641 0.05739-0.07268q-0.1623-0.499-0.1081-1.08 0.05416-0.5809 0.5379-1.193zm0.842 1.474q-0.4755 0.6022-0.2985 1.147 0.1852 0.5339 0.9371 1.161l0.1661 0.1312q0.8202 0.6477 1.455 0.7614 0.6328 0.09515 1.141-0.5486 0.4181-0.5295 0.1788-1.123-0.2415-0.6121-1.072-1.268-1.672-1.32-2.508-0.2609z"/><path d="m43.61 45.4q1.014-1.044 2.004-1.152 0.9898-0.1266 1.92 0.7767l3.454 3.355-0.9587 0.9869-0.9695-0.4069-0.03687 0.03796q0.09489 0.7377-0.07483 1.292-0.1697 0.5544-0.7965 1.2-0.6729 0.6927-1.514 0.761-0.8505 0.0591-1.686-0.7521-0.8255-0.802-0.6523-1.759 0.1638-0.966 1.25-2.161l0.8472-0.9291-0.2277-0.2212q-0.408-0.3964-0.8098-0.3625-0.3926 0.0244-0.7613 0.404-0.3687 0.3796-0.6051 0.8508-0.2459 0.462-0.4349 0.9793l-1.41-0.466q0.1873-0.6295 0.5525-1.252 0.3744-0.6322 0.909-1.183zm3.097 2.621q-0.6447 0.7016-0.6751 1.189-0.03037 0.4869 0.3397 0.8464 0.3226 0.3134 0.6493 0.2619 0.3172-0.06073 0.6122-0.3644 0.4425-0.4555 0.481-1.027 0.02901-0.5805-0.4644-1.06l-0.427-0.4148z"/><path d="m50.74 38.82q0.1101-0.0951 0.269-0.2148 0.1588-0.1197 0.2663-0.1775l1.1 1.497q-0.08738 0.04049-0.2362 0.1515-0.1475 0.09237-0.2476 0.1788-0.3805 0.3285-0.6099 0.7713-0.2381 0.4328-0.199 0.9234 0.0491 0.482 0.4987 1.003l2.404 2.784-1.492 1.288-4.721-5.467 1.131-0.977 1.016 0.731 0.07009-0.06052q-0.1228-0.628 0.03837-1.292 0.1612-0.6635 0.7119-1.139z"/><path d="m58.67 40.18q0.2656-0.1971 0.4704-0.4316 0.2049-0.2345 0.394-0.4902l0.8753 1.179q-0.1761 0.2955-0.5033 0.6537-0.3087 0.361-0.7548 0.6922-0.5205 0.3864-1.061 0.524-0.5298 0.1297-1.082-0.1032-0.5491-0.2514-1.101-0.995l-2.074-2.794-0.7542 0.5599-0.4968-0.6692 0.4767-1.178-0.4501-1.561 1.009-0.7491 0.9147 1.232 1.625-1.206 0.8832 1.19-1.625 1.206 2.074 2.794q0.2445 0.3293 0.5618 0.3573 0.3095 0.01739 0.6175-0.2113z"/><path d="m65.36 29.05q1.067-0.6121 1.923-0.3706 0.8602 0.2235 1.551 1.428l2.343 4.085-1.71 0.9806-2.099-3.661q-0.7766-1.354-1.718-0.8145-0.6771 0.3883-0.6876 1.035-0.01048 0.6465 0.5095 1.553l1.803 3.144-1.71 0.9806-2.099-3.661q-0.7766-1.354-1.718-0.8145-0.7115 0.408-0.6776 1.105 0.0388 0.6793 0.6114 1.678l1.691 2.949-1.71 0.9806-3.593-6.266 1.308-0.7503 0.6902 0.6717 0.09181-0.05265q0.01048-0.6465 0.3789-1.148 0.3799-0.5076 0.9193-0.817 0.6886-0.3949 1.302-0.4418 0.607-0.05838 1.129 0.2673l0.1492-0.08556q0.01048-0.6465 0.3904-1.154 0.3914-0.5142 0.9307-0.8235z"/><path d="m73.04 25.52q1.383-0.5671 2.517-0.1028 1.129 0.4521 1.726 1.909l0.3614 0.8813-4.309 1.767q0.3407 0.7611 0.9498 1.026 0.6213 0.26 1.392-0.05623 0.6487-0.266 1.125-0.6042 0.4711-0.3505 0.9238-0.8506l0.5772 1.408q-0.3892 0.4456-0.8949 0.7816-0.4884 0.3432-1.26 0.6594-1.004 0.4116-1.925 0.3605-0.9267-0.06325-1.679-0.6415-0.7518-0.5782-1.224-1.729-0.4818-1.175-0.4063-2.107 0.08271-0.949 0.632-1.632 0.5493-0.6828 1.492-1.069zm0.5442 1.292q-0.5263 0.2158-0.7408 0.7041-0.2022 0.4833 0.03272 1.231l2.558-1.049q-0.2632-0.607-0.7298-0.8732-0.4716-0.2785-1.12-0.01245z"/><path d="m82.22 22.36q1.117-0.3266 1.969 0.0862 0.8474 0.4001 1.237 1.733l1.321 4.52-1.892 0.553-1.184-4.051q-0.219-0.7492-0.5933-1.039-0.378-0.303-0.9621-0.1323-0.8635 0.2524-1.006 0.942-0.1467 0.6769 0.1762 1.782l0.9538 3.263-1.892 0.553-2.026-6.933 1.448-0.4231 0.5138 0.8146 0.1016-0.02969q0.1743-0.6298 0.6752-1.038 0.5136-0.412 1.161-0.6013z"/><path d="m91.44 26.29q0.3246-0.06338 0.6106-0.1866 0.286-0.1232 0.5668-0.2724l0.2814 1.441q-0.2863 0.1907-0.7359 0.3728-0.4342 0.1926-0.9795 0.2991-0.6362 0.1242-1.183 0.01535-0.534-0.1114-0.9315-0.5595-0.3871-0.4636-0.5645-1.372l-0.6668-3.415-0.9219 0.18-0.1597-0.818 0.9379-0.8571 0.2668-1.602 1.233-0.2408 0.2941 1.506 1.987-0.3879 0.2839 1.454-1.987 0.3879 0.6668 3.415q0.07859 0.4025 0.3529 0.5646 0.2717 0.1491 0.6483 0.07561z"/><path d="m104.1 22.78q0.1114 1.796-0.7787 2.832-0.8769 1.035-2.501 1.136-1.003 0.06225-1.823-0.3243-0.8061-0.3874-1.307-1.191-0.5014-0.8172-0.5759-2.019-0.1114-1.796 0.7663-2.818 0.8777-1.022 2.515-1.124 1.017-0.06307 1.823 0.3243 0.806 0.3874 1.307 1.191 0.4997 0.7908 0.5742 1.992zm-4.978 0.3088q0.06635 1.07 0.444 1.603 0.3901 0.5192 1.182 0.4701 0.779-0.04833 1.089-0.611 0.3221-0.5767 0.2558-1.646-0.0663-1.07-0.4556-1.576-0.3769-0.5201-1.169-0.4709-0.779 0.04833-1.102 0.6118-0.3105 0.5494-0.2442 1.619z"/><path d="m110.1 20.79-1.706-0.0352-0.1184 5.74-1.971-0.04066 0.1184-5.74-1.085-0.02238 0.0196-0.9523 1.095-0.5067 0.0109-0.5291q0.0191-0.9258 0.3337-1.422 0.3281-0.5093 0.9012-0.7092 0.5863-0.1996 1.367-0.1835 0.582 0.01201 1.043 0.1141 0.4742 0.1024 0.7628 0.2274l-0.5324 1.431q-0.2235-0.07077-0.4869-0.1291-0.2632-0.07159-0.607-0.07869-0.41-0.0085-0.6136 0.2387-0.1904 0.2475-0.1983 0.631l-9e-3 0.4497 1.706 0.0352z"/><path d="m119.1 17.99q1.806 0.2687 2.513 1.176 0.7226 0.8966 0.5201 2.257-0.1207 0.8113-0.568 1.48-0.4454 0.656-1.308 0.969-0.8494 0.315-2.21 0.1125l-0.8505-0.1266-0.4945 3.324-1.976-0.294 1.39-9.343zm-0.3461 1.607-0.9029-0.1343-0.4128 2.774 0.6543 0.09735q0.8374 0.1246 1.37-0.1305 0.5479-0.2662 0.6588-1.012 0.2025-1.361-1.368-1.594z"/><path d="m126.7 20.94q-0.1336 0.512-0.2957 0.9756-0.1492 0.4669-0.2249 0.6523l0.1024 0.02673q0.4731-0.4508 1.061-0.557 0.5883-0.1062 1.228 0.06082 1.139 0.2973 1.657 1.089 0.5342 0.782 0.1834 2.126l-1.189 4.557-1.907-0.4978 1.066-4.083q0.3942-1.51-0.7322-1.804-0.8576-0.2238-1.347 0.2909-0.4737 0.5053-0.7644 1.619l-0.8586 3.29-1.907-0.4978 2.539-9.728 1.907 0.4978z"/><path d="m138.5 29.44q-0.6379 1.682-1.876 2.26-1.225 0.5823-2.747 0.0054-0.9401-0.3565-1.527-1.046-0.575-0.6849-0.7001-1.624-0.1204-0.9511 0.3065-2.077 0.6379-1.682 1.859-2.252 1.221-0.57 2.755 0.01168 0.9525 0.3612 1.527 1.046 0.575 0.6849 0.7001 1.624 0.1298 0.9264-0.2971 2.052zm-4.663-1.768q-0.3799 1.002-0.2553 1.643 0.1417 0.6338 0.8838 0.9152 0.7298 0.2767 1.244-0.1085 0.531-0.3929 0.9109-1.395 0.3799-1.002 0.2336-1.623-0.1293-0.6291-0.8715-0.9106-0.7298-0.2767-1.256 0.1038-0.5092 0.3728-0.8892 1.375z"/><path d="m142.1 33.57q0.2977 0.1441 0.6004 0.2171 0.3027 0.07301 0.6169 0.1222l-0.6397 1.322q-0.3434-0.01923-0.8124-0.1433-0.4629-0.1064-0.963-0.3485-0.5835-0.2824-0.9557-0.6977-0.3603-0.4095-0.4094-1.006-0.0315-0.6031 0.3719-1.437l1.516-3.132-0.8455-0.4092 0.3631-0.7502 1.265-0.1228 1.175-1.122 1.131 0.5475-0.6685 1.381 1.822 0.8817-0.6454 1.334-1.822-0.8817-1.516 3.132q-0.1786 0.3692-0.0565 0.6634 0.1279 0.2824 0.4732 0.4495z"/><path d="m151.4 36.33q-0.923 1.544-2.243 1.896-1.308 0.3585-2.705-0.4763-0.863-0.5158-1.32-1.298-0.446-0.7751-0.4046-1.721 0.0482-0.9575 0.6658-1.991 0.923-1.544 2.225-1.892t2.71 0.4944q0.8744 0.5226 1.32 1.298t0.4046 1.721q-0.0347 0.9348-0.6522 1.968zm-4.281-2.559q-0.5497 0.9198-0.5395 1.573 0.0284 0.6488 0.7097 1.056 0.67 0.4004 1.243 0.1113 0.5916-0.2937 1.141-1.214 0.5497-0.9198 0.5146-1.557-0.017-0.642-0.6984-1.049-0.67-0.4004-1.255-0.118-0.5667 0.2778-1.116 1.198z"/><path d="m157.1 35.89q1.069 0.801 1.039 2.1l0.0424 0.03172 0.6822-0.646 1.334 0.9992-4.338 5.792q-0.9278 1.239-2.142 1.338-1.214 0.09872-2.644-0.9719-0.6142-0.46-1.088-0.9306-0.4633-0.4627-0.8183-1.026l0.9437-1.26q0.7364 1.246 1.922 2.134 1.218 0.912 2.201-0.401l0.0872-0.1165q0.1348-0.18 0.2882-0.3627 0.1639-0.1747 0.2855-0.315l-0.0423-0.03172q-0.6375 0.2333-1.201 0.1252-0.5636-0.1081-1.082-0.4967-1.027-0.7692-1.023-1.989 0.023-1.222 1.078-2.631 1.063-1.419 2.25-1.769 1.188-0.3501 2.225 0.4271zm-0.4619 1.654q-1.112-0.8327-2.42 0.9145-1.293 1.726-0.1596 2.575 0.6036 0.452 1.143 0.3273 0.5582-0.1274 1.201-0.9851l0.1428-0.1906q0.6979-0.9318 0.7133-1.548 0.0155-0.6165-0.6199-1.092z"/><path d="m165.4 42.73q0.1083 0.09719 0.2472 0.2396 0.1389 0.1424 0.2098 0.2416l-1.345 1.281q-0.0513-0.08154-0.1803-0.2151-0.1103-0.1345-0.2088-0.2229-0.3742-0.3357-0.8425-0.5071-0.4595-0.1812-0.9412-0.0802-0.4718 0.1099-0.9312 0.6219l-2.456 2.737-1.467-1.316 4.824-5.376 1.113 0.9984-0.5962 1.1 0.0689 0.06184q0.6074-0.2015 1.286-0.1258 0.6786 0.07568 1.22 0.5616z"/><path d="m169.1 46.49q0.9957 1.061 1.058 2.055 0.0806 0.9946-0.8649 1.882l-3.512 3.295-0.9414-1.003 0.4515-0.9496-0.0362-0.03859q-0.7413 0.06059-1.287-0.1347-0.546-0.1952-1.161-0.8513-0.6608-0.7043-0.69-1.548-0.0196-0.8523 0.8294-1.649 0.8394-0.7875 1.787-0.5701 0.9574 0.2084 2.1 1.349l0.8888 0.8894 0.2316-0.2172q0.4149-0.3892 0.3996-0.7921-6e-3 -0.3933-0.3682-0.7792-0.3621-0.3859-0.8218-0.6439-0.4501-0.2671-0.9581-0.4798l0.5309-1.387q0.6202 0.2163 1.225 0.61 0.6142 0.4033 1.139 0.9629zm-2.762 2.972q-0.671-0.6765-1.156-0.7295-0.485-0.05291-0.8613 0.3001-0.328 0.3078-0.2917 0.6365 0.046 0.3197 0.3356 0.6284 0.4345 0.4631 1.003 0.528 0.5785 0.05589 1.08-0.4148l0.4342-0.4073z"/><path d="m175.4 54.01q0.7375 0.9682 0.4367 2.145-0.2903 1.169-1.753 2.283t-2.704 1.079q-1.231-0.04374-1.968-1.012-0.473-0.6209-0.5325-1.158-0.049-0.5447 0.0587-0.9927l-0.0641-0.08419q-0.3779 0.4209-0.7778 0.7255l-2.315 1.764-1.194-1.568 8.272-6.301 0.97 1.273-0.5788 0.7902 0.0561 0.07367q0.5236-0.03301 1.073 0.164 0.5492 0.197 1.022 0.8179zm-1.637 0.4488q-0.4649-0.6104-1.036-0.5744-0.5632 0.04654-1.358 0.6187l-0.1684 0.1283q-0.8314 0.6333-1.1 1.22-0.2496 0.5893 0.2474 1.242 0.4088 0.5367 1.043 0.4526 0.6529-0.0816 1.495-0.7229 1.694-1.291 0.8767-2.364z"/><path d="m180 59.54q-0.4529 0.2737-0.8923 0.493-0.4326 0.2306-0.6161 0.3106l0.0547 0.09057q0.6534 0.0069 1.149 0.3411 0.4957 0.3342 0.8378 0.9003 0.609 1.008 0.4283 1.936-0.1626 0.933-1.351 1.652l-4.031 2.436-1.02-1.687 3.612-2.183q1.336-0.8075 0.7338-1.804-0.4585-0.7586-1.169-0.7313-0.6919 0.03175-1.677 0.6271l-2.91 1.759-1.02-1.687 8.605-5.201 1.02 1.687z"/><path d="m182.6 65.49 0.9209 1.95-3.09 2.967q-0.218 0.22-0.4824 0.4034-0.2525 0.1778-0.5522 0.3486l0.017 0.03589q0.328-0.111 0.6313-0.1812 0.321-0.06382 0.6237-0.1044l4.243-0.5264 0.904 1.914-8.674 0.7171q-1.192 0.1094-2.033-0.371-0.8477-0.4628-1.288-1.396-0.1412-0.2991-0.2127-0.5433-0.0778-0.2266-0.121-0.411l1.412-0.6667q0.0382 0.1429 0.0991 0.3336 0.0665 0.2027 0.1625 0.406 0.2655 0.5622 0.765 0.7213 0.4931 0.1767 1.045 0.1062l0.3738-0.04489z"/></g></g><path d="m105.8 29.77a76.07 76.07 0 0 0-76.07 76.07 76.07 76.07 0 0 0 75.94 76.06 21.78 38.03 0 0 1-21.6-33.76 43.92 43.94 0 0 1-0.2294-4.28 43.92 43.94 0 0 1 21.96-38.02 43.92 43.94 0 0 0 21.96-38.02 43.92 43.94 0 0 0-0.2294-4.28 21.78 38.03 0 0 0-21.64-33.77v0.05684a43.92 43.94 0 0 0-0.09199-0.05684zm-0.3493 1.323a21.02 36.71 0 0 1 20.77 32.58 42.39 42.41 0 0 1 0.2217 4.132 42.39 42.41 0 0 1-19.34 35.55 26.46 26.46 0 0 1-16.24 5.58 26.46 26.46 0 0 1-26.46-26.46 26.46 26.46 0 0 1 26.46-26.46 26.46 26.46 0 0 1 20.02 9.191 21.02 36.71 26.93 0 0-5.437-34.12zm-14.59 41.46a9.922 9.922 0 0 0-9.922 9.922 9.922 9.922 0 0 0 9.922 9.921 9.922 9.922 0 0 0 9.922-9.921 9.922 9.922 0 0 0-9.922-9.922zm14.84 109.3v0.05477a76.07 76.07 0 0 0 0.09198 0.00207 43.92 43.94 0 0 1-0.09198-0.05684z" stroke-width=".4101"/><path d="m120.8 102.7a26.46 26.46 0 0 0-16.24 5.58 42.39 42.41 0 0 0-19.34 35.55 42.39 42.41 0 0 0 0.2217 4.132 21.02 36.71 0 0 0 20.77 32.58 21.02 36.71 26.93 0 1-5.437-34.12 26.46 26.46 0 0 0 20.02 9.191 26.46 26.46 0 0 0 26.46-26.46 26.46 26.46 0 0 0-26.46-26.46zm0 16.54a9.922 9.922 0 0 1 9.922 9.922 9.922 9.922 0 0 1-9.922 9.922 9.922 9.922 0 0 1-9.922-9.922 9.922 9.922 0 0 1 9.922-9.922z" stroke-width=".3103"/></svg>
