<svg viewBox="0 0 135 135" xmlns="http://www.w3.org/2000/svg"><path d="m62.1 135c-50.9-4.23-79-61.6-51.1-104 28.2-43.2 92.5-40.2 117 5.42 24.8 47-12.5 103-65.4 98.9zm24.8-11.4c21.8-7.46 37.5-27.2 39.8-50.2 0.444-4.41 0.389-5.57-0.258-5.41-0.829 0.217-7.57-5.06-10.7-8.36-1.66-1.76-3.87-0.996-3.12 1.08 0.954 2.65-0.396 4.25-3.58 4.23-3.98-0.0184-7.01-2.39-12.7-9.97-4.63-6.15-5-6.46-11-9.48-8.81-4.4-11.1-4.78-15.5-2.61-3.36 1.62-3.36 1.62-3.61 0.955-1.37-3.6 1.33-6.2 9.61-9.25 1.78-0.655 3.56-1.32 3.95-1.48 1.06-0.422 1.2-1.64 0.484-4.26-0.886-3.23-0.818-3.32 5.46-7.52 4.81-3.21 6.26-3.4 7.33-0.964 1.25 2.85 1.26 2.85 5.46 0.758 1.63-0.811 3.12-1.47 3.33-1.47 2.29 0-8.51-6.04-14.4-8.07-7.4-2.54-23-4.77-19.1-2.74 1.15 0.599 1.19 0.669 1.26 1.94 0.156 2.96 0.788 3.73 3.21 3.89 2.14 0.147 3.29 1.17 3.15 2.81-0.0809 0.972-0.0809 0.972-7.75 3.96-15.5 6.02-20.4 7.42-21.5 6.02-1-1.37-0.687-1.73 6.37-7.08 8.59-6.52 8.75-7.23 0.816-3.75-11.9 5.21-15.2 7.44-15.7 10.5-0.69 3.99-2.78 5.06-7.03 3.6-2.12-0.728-3.51-0.665-6.27 0.283-1.3 0.447-2.75 0.78-3.21 0.74-3.13-0.27-10.6 14.8-10.6 21.5-0.0219 7.15 3.38 16 8.04 20.8 4.44 4.61 4.35 8.02-0.414 15.1-3.75 5.58-3.77 5.68-1.47 9.35 9.69 15.4 24 25.1 33.8 22.9 14.6-3.26 23.6-2.59 30.6 2.31 1.66 1.16 1.57 1.16 5.33-0.122zm-10.1-21.3c-1.58-1.58-2.13-3.62-2.66-9.86-0.996-11.7-2.75-18.9-4.88-20-0.371-0.191-2.76-0.945-5.3-1.68-13.4-3.84-16.3-7.66-11.3-14.7 4.6-6.44 12.1-9.97 18.4-8.67 2.86 0.588 6.09 1.94 5.92 2.48-0.59 1.86 5.55 4.42 13.3 5.54 2.86 0.414 3.88 1.4 6.41 6.24 2.26 4.31 2.88 4.97 6.45 6.92 4.57 2.49 4.3 2.15 3.9 4.88-0.399 2.68-1.05 3.47-4.36 5.31-2.95 1.64-3.37 2.06-6.37 6.44-9.95 14.5-16.4 20.2-19.5 17.1z" fill="#333"/></svg>
