<svg viewBox="0 0 135.5 135.5" xmlns="http://www.w3.org/2000/svg"><path d="m62.11 135c-50.86-4.232-78.99-61.64-51.14-104.4 28.16-43.17 92.53-40.18 116.6 5.424 24.77 46.96-12.52 103.3-65.44 98.94zm24.78-11.37c21.8-7.464 37.45-27.23 39.77-50.22 0.4444-4.407 0.3888-5.574-0.2575-5.405-0.829 0.2168-7.574-5.057-10.69-8.362-1.661-1.759-3.871-0.9964-3.125 1.078 0.9536 2.652-0.3957 4.245-3.582 4.231-3.984-0.01843-7.008-2.388-12.72-9.968-4.634-6.147-4.998-6.459-11.05-9.481-8.812-4.401-11.07-4.78-15.55-2.615-3.36 1.624-3.36 1.624-3.614 0.9555-1.368-3.599 1.335-6.201 9.611-9.249 1.777-0.6546 3.556-1.319 3.952-1.476 1.064-0.4221 1.202-1.64 0.4844-4.259-0.8856-3.231-0.8179-3.324 5.461-7.518 4.812-3.214 6.258-3.404 7.329-0.964 1.253 2.854 1.256 2.854 5.46 0.7582 1.626-0.8108 3.123-1.474 3.326-1.474 2.291 0-8.512-6.039-14.43-8.065-7.403-2.536-22.96-4.773-19.07-2.743 1.148 0.5994 1.193 0.6689 1.26 1.945 0.1563 2.96 0.7877 3.726 3.211 3.892 2.138 0.1467 3.287 1.171 3.15 2.809-0.0809 0.9715-0.0809 0.9715-7.754 3.961-15.46 6.022-20.43 7.418-21.45 6.022-1.005-1.372-0.6865-1.726 6.371-7.078 8.593-6.517 8.749-7.23 0.8163-3.749-11.87 5.209-15.21 7.444-15.74 10.52-0.6904 3.987-2.784 5.058-7.033 3.596-2.116-0.7281-3.51-0.6652-6.272 0.2832-1.301 0.4468-2.746 0.7796-3.21 0.7396-3.134-0.27-10.59 14.82-10.62 21.47-0.02193 7.154 3.381 15.95 8.043 20.79 4.44 4.61 4.347 8.017-0.4138 15.1-3.751 5.581-3.767 5.685-1.465 9.348 9.688 15.42 24.01 25.13 33.85 22.94 14.64-3.263 23.61-2.587 30.62 2.306 1.664 1.162 1.574 1.164 5.328-0.1221zm-10.08-21.34c-1.579-1.579-2.129-3.617-2.661-9.861-0.9962-11.69-2.752-18.87-4.878-19.97-0.3708-0.1906-2.758-0.9448-5.304-1.676-13.37-3.839-16.3-7.662-11.28-14.7 4.597-6.443 12.1-9.97 18.44-8.668 2.862 0.5879 6.09 1.943 5.918 2.484-0.5904 1.86 5.548 4.42 13.28 5.538 2.862 0.4139 3.879 1.403 6.413 6.237 2.261 4.312 2.878 4.975 6.452 6.922 4.575 2.493 4.302 2.151 3.896 4.882-0.3994 2.685-1.047 3.475-4.355 5.311-2.95 1.638-3.369 2.061-6.37 6.444-9.946 14.53-16.43 20.18-19.55 17.06z" fill="#333"/></svg>
