<svg viewBox="0 0 211.7 211.7" xmlns="http://www.w3.org/2000/svg"><circle cx="105.8" cy="105.8" r="105.8" fill="#fff" stroke-width=".3218"/><circle transform="matrix(0,-1,-1,0,0,0)" cx="-105.8" cy="-105.8" r="95.91" stroke-width=".2912"/><g transform="translate(0 -7.536)" fill="#fff" stroke-width=".265" aria-label="Estd. 1971"><path d="m79.98 198.3-5.19-1.622 2.818-9.016 5.19 1.622-0.4893 1.566-3.283-1.026-0.6196 1.982 3.056 0.955-0.4893 1.566-3.056-0.955-0.7261 2.323 3.283 1.026z"/><path d="m87.13 197.8q-0.2498 1.069-1.145 1.471-0.8796 0.3923-2.374 0.0433-0.7343-0.1715-1.238-0.398-0.5071-0.2136-0.9841-0.5559l0.3701-1.585q0.5066 0.39 1.125 0.711 0.6179 0.3209 1.12 0.4383 0.5668 0.1324 0.8378 0.0191 0.2839-0.1103 0.3471-0.3808 0.04213-0.1804-0.02783-0.3461-0.05708-0.1628-0.337-0.4184-0.2799-0.2556-0.8965-0.6985-0.5908-0.4369-0.9527-0.8067-0.3589-0.3827-0.4748-0.8173-0.1128-0.4475 0.02558-1.04 0.2287-0.9791 1.103-1.291 0.8744-0.312 2.137-0.0171 0.657 0.1535 1.22 0.4207t1.125 0.711l-0.9017 1.243q-0.4641-0.3394-0.8948-0.5894-0.4277-0.2629-0.9043-0.3742-0.8502-0.1986-0.9586 0.2652-0.03912 0.1675 0.03084 0.3333 0.08585 0.1559 0.3589 0.3827 0.286 0.2298 0.8441 0.6319 0.5483 0.3862 0.9231 0.759 0.3778 0.36 0.5164 0.8135 0.1545 0.4436 7e-3 1.075z"/><path d="m91.39 199.2q0.3262 0.0543 0.6372 0.039 0.311-0.0153 0.6263-0.0567l-0.2411 1.449q-0.3349 0.0784-0.8199 0.0915-0.4741 0.0284-1.022-0.0629-0.6394-0.1064-1.114-0.3999-0.4611-0.2913-0.6766-0.8502-0.2002-0.5698-0.04816-1.483l0.5713-3.432-0.9265-0.1542 0.1368-0.8221 1.179-0.4744 0.8109-1.407 1.24 0.2064-0.252 1.514 1.997 0.3323-0.2433 1.462-1.997-0.3323-0.5713 3.432q-0.06734 0.4045 0.1328 0.6524 0.2023 0.2348 0.5808 0.2978z"/><path d="m96.09 201.4q-1.199-0.1099-1.877-1.115-0.6639-1.017-0.496-2.849 0.1691-1.844 1.02-2.723 0.8511-0.8785 2.089-0.7649 0.7773 0.0713 1.25 0.4202 0.4728 0.3489 0.7216 0.8234l0.06587 6e-3q-0.0202-0.2144-0.03666-0.6145-0.01525-0.4132 0.0234-0.8348l0.2114-2.305 1.963 0.18-0.918 10.01-1.502-0.1377-0.2963-0.9704-0.07904-7e-3q-0.3309 0.4213-0.8473 0.6928-0.5152 0.2583-1.292 0.187zm0.8288-1.505q0.8168 0.0749 1.19-0.3692 0.374-0.4572 0.4754-1.418l0.01933-0.2108q0.09663-1.054-0.182-1.637-0.2654-0.5823-1.135-0.662-0.6455-0.0592-1.066 0.4735-0.4196 0.5195-0.5162 1.573-0.09663 1.054 0.2227 1.628 0.3206 0.5608 0.9924 0.6224z"/><path d="m101.9 200.7q0.0175-0.6083 0.3549-0.8368 0.3378-0.2418 0.8139-0.2281 0.4628 0.0133 0.7862 0.274 0.3238 0.2475 0.3063 0.8558-0.0167 0.5818-0.3549 0.8368-0.3378 0.2418-0.8006 0.2284-0.476-0.0137-0.7994-0.2744-0.323-0.274-0.3063-0.8558z"/><path d="m113.8 201.4-1.993 0.1293-0.3537-5.452q-0.0223-0.3432-0.045-0.8986-0.01-0.5562-0.0238-0.9795-0.0609 0.0835-0.2716 0.3093-0.1984 0.2117-0.3729 0.3821l-1.026 0.9415-1.042-1.139 2.88-2.613 1.637-0.1062z"/><path d="m122.2 194.9q0.1153 0.7987 0.1128 1.614-4e-3 0.8026-0.2035 1.553-0.1879 0.7355-0.6453 1.363-0.4462 0.6124-1.226 1.046-0.7683 0.4184-1.934 0.5866-0.275 0.0397-0.6454 0.0664-0.3685 0.0398-0.6248 0.0234l-0.2288-1.584q0.2694 0.0146 0.5632 0.0122 0.2937-2e-3 0.5818-0.0439 1.165-0.1682 1.741-0.6256 0.5868-0.4723 0.7541-1.165 0.1674-0.6925 0.0819-1.562l-0.0786 0.0113q-0.2088 0.498-0.6217 0.8784-0.3998 0.3785-1.29 0.5071-1.192 0.172-2.023-0.4965-0.8317-0.6685-1.036-2.083-0.2193-1.519 0.507-2.506 0.7394-0.9889 2.206-1.201 0.9558-0.138 1.793 0.1956 0.8349 0.3206 1.426 1.171 0.5887 0.8373 0.791 2.238zm-3.741-2.026q-0.5761 0.0832-0.886 0.5289-0.3099 0.4457-0.187 1.297 0.0983 0.6809 0.4692 1.028 0.371 0.3474 1.013 0.2548 0.4452-0.0643 0.7311-0.306 0.299-0.2437 0.4407-0.5582 0.1398-0.3276 0.0945-0.6419-0.0624-0.4321-0.28-0.8284-0.2176-0.3963-0.5697-0.6128-0.3539-0.2296-0.8253-0.1615z"/><path d="m124.8 199.9 1.744-8.357-4.542 1.028-0.3709-1.639 6.606-1.495 0.2774 1.226-1.676 8.775z"/><path d="m136 196.9-1.907 0.5943-1.625-5.216q-0.1023-0.3284-0.255-0.8628-0.14-0.5383-0.2534-0.9464-0.0395 0.0955-0.1913 0.3644-0.143 0.2524-0.2726 0.4591l-0.7759 1.156-1.28-0.862 2.185-3.217 1.566-0.488z"/></g><circle transform="rotate(90)" cx="105.8" cy="-105.8" r="71.93" fill="#fff" stroke-width=".2375"/><path d="m95.62 37.66a68.94 68.94 0 0 0-57.96 78.39 68.94 68.94 0 0 0 78.39 57.96 34.47 34.47 0 0 1-39.2-28.98 34.47 34.47 0 0 1 28.98-39.2 34.47 34.47 0 0 0 28.98-39.2 34.47 34.47 0 0 0-39.2-28.98zm-4.76 3.987c0.5224-0.08296 1.201-0.09259 2.084-0.04423 7.662 0.4199 14.47 2.528 20.06 6.127a26.98 26.98 0 0 1 14.4 20.02c1.073 4.748 0.8476 8.862-0.7251 13.25-1.688 4.711-4.211 8.101-8.204 11.03a26.98 26.98 0 0 1-0.1958 0.1785l-5e-3 -0.03242c-1.736 1.233-5.052 2.785-7.314 3.418-4.577 1.28-9.76 0.9781-14.46-0.8411-5.787-2.242-10.18-6.623-12.75-12.72-1.796-4.255-2.224-7.722-1.523-12.33 0.867-5.701 3.896-10.88 8.479-14.49 4.201-2.619 8.442-3.855 11.55-3.252-1.572-2.921-8.542-4.66-11.72-6.609-1.215-0.6774-1.604-1.517-1.209-2.61 0.2217-0.6136 0.6579-0.9551 1.529-1.093zm12.69 22.09a8.992 8.992 0 0 0-7.56 10.23 8.992 8.992 0 0 0 10.23 7.56 8.992 8.992 0 0 0 7.56-10.23 8.992 8.992 0 0 0-10.23-7.56z" stroke-width=".3113"/><path d="m103.6 114c-0.945 0.137-1.875 0.3315-2.783 0.5853-2.392 0.6689-5.899 2.31-7.735 3.615l-0.0051-0.0342a28.53 28.53 0 0 0-0.2071 0.1888c-4.223 3.093-6.891 6.678-8.676 11.66-1.663 4.643-1.901 8.994-0.7668 14.01a28.53 28.53 0 0 0 15.23 21.17c5.913 3.807 13.11 6.036 21.22 6.48 0.9333 0.0512 1.651 0.041 2.203-0.0468 0.9206-0.1475 1.382-0.5073 1.617-1.156 0.418-1.157 7e-3 -2.044-1.278-2.761-3.36-2.06-10.73-3.899-12.39-6.989 3.285 0.6374 7.77-0.67 12.21-3.439 4.847-3.822 8.05-9.296 8.967-15.33 0.741-4.872 0.2881-8.539-1.611-13.04-2.721-6.447-7.366-11.08-13.49-13.45-4.035-1.563-8.41-2.067-12.5-1.475zm2.062 14.28a9.509 9.509 0 0 1 10.81 7.995 9.509 9.509 0 0 1-7.995 10.81 9.509 9.509 0 0 1-10.81-7.995 9.509 9.509 0 0 1 7.995-10.81z" stroke-width=".2332"/><g transform="matrix(1.085 0 0 1.025 -9.074 -7.742)" fill="#fff" stroke-width=".265" aria-label="DEPARTMENT OF PHOTOGRAPHY"><path d="m30.58 90.14q2.367 0.3597 3.366 1.89 0.9875 1.515 0.6198 3.935l-0.4014 2.642-9.338-1.419 0.4452-2.93q0.2226-1.465 0.9087-2.458 0.6881-1.006 1.798-1.44 1.099-0.4486 2.603-0.2201zm-0.2597 2.061q-1.556-0.2365-2.379 0.3343-0.8358 0.5688-1.033 1.864l-0.161 1.059 6.082 0.9241 0.1292-0.8501q0.4352-2.864-2.638-3.331z"/><path d="m37.3 83.72-1.455 5.239-9.101-2.528 1.455-5.239 1.581 0.439-0.9205 3.314 2.001 0.5559 0.8568-3.085 1.581 0.439-0.8568 3.085 2.345 0.6515 0.9205-3.314z"/><path d="m30.27 75.58q0.671-1.698 1.716-2.181 1.037-0.5005 2.317 0.0051 0.7628 0.3015 1.313 0.8888 0.538 0.5824 0.6474 1.493 0.1143 0.8986-0.3914 2.178l-0.316 0.7997 3.125 1.235-0.7342 1.858-8.785-3.472zm1.487 0.7014-0.3355 0.8489 2.608 1.031 0.2431-0.6152q0.3112-0.7874 0.1835-1.364-0.1351-0.5939-0.8364-0.8711-1.28-0.5057-1.863 0.9707z"/><path d="m43.58 69.68-2.306-0.4596-1.629 3.029 1.655 1.671-1.022 1.899-6.774-7.429 1.159-2.155 9.939 1.546zm-6.272-1.271q-0.2294-0.04828-0.5824-0.118-0.3531-0.06974-0.7178-0.1457-0.3647-0.076-0.629-0.1431 0.2017 0.1836 0.4948 0.4765 0.2877 0.2749 0.5522 0.5374 0.259 0.2445 0.3621 0.36l1.614 1.634 1.166-2.167z"/><path d="m39.2 59.1q1.119-1.575 2.219-1.913 1.108-0.3489 2.273 0.4785 0.5285 0.3754 0.782 0.8638 0.2504 0.4699 0.2933 1.003 0.0398 0.5151-0.05577 1.015l4.963 0.1177-1.287 1.812-4.258-0.2656-0.6205 0.8736 2.955 2.099-1.157 1.629-7.701-5.47zm1.253 1.069-0.3524 0.4961 2.082 1.479 0.3754-0.5285q0.5746-0.8089 0.5501-1.346-0.01682-0.5474-0.5453-0.9228-0.55-0.3907-1.045-0.1741-0.4977 0.1982-1.065 0.9963z"/><path d="m52.93 57.08-1.334 1.487-5.791-5.193-1.713 1.911-1.241-1.113 4.761-5.309 1.241 1.113-1.713 1.911z"/><path d="m58.68 51.5-6.515-4.196-0.04045 0.03411q0.1807 0.1937 0.5421 0.5812t0.7739 0.8356q0.404 0.438 0.7196 0.8122l2.832 3.358-1.365 1.151-6.089-7.221 2.083-1.757 6.366 4.08 0.03034-0.02559-2.846-7.048 2.083-1.757 6.089 7.221-1.426 1.203-2.883-3.418q-0.29-0.3438-0.6551-0.7973-0.355-0.462-0.6775-0.865-0.3209-0.4216-0.4814-0.6324l-0.04045 0.03411 2.907 7.222z"/><path d="m69.97 43.39-4.598 2.901-5.04-7.989 4.598-2.901 0.8753 1.387-2.909 1.835 1.108 1.757 2.708-1.708 0.8753 1.387-2.708 1.708 1.299 2.059 2.909-1.835z"/><path d="m79.26 38.84-2.302 1.073-6.748-4.736-0.04796 0.02236q0.3091 0.6003 0.6182 1.201 0.3211 0.5947 0.6302 1.195l1.878 4.029-1.619 0.7547-3.992-8.561 2.29-1.068 6.708 4.681 0.03597-0.01677q-0.2915-0.5939-0.5894-1.17-0.2979-0.5763-0.5958-1.153l-1.89-4.053 1.631-0.7603z"/><path d="m84.99 36.96-1.904 0.6046-2.354-7.414-2.446 0.7767-0.5045-1.589 6.796-2.158 0.5045 1.589-2.446 0.7767z"/><path d="m100.1 29.24q0.1938 1.456-0.1465 2.609-0.3289 1.138-1.232 1.872-0.9032 0.7342-2.437 0.9384-1.521 0.2025-2.598-0.268-1.064-0.4723-1.694-1.496-0.617-1.026-0.8108-2.481t0.1352-2.594q0.342-1.14 1.247-1.861 0.9163-0.7359 2.451-0.9402 1.521-0.2025 2.585 0.2698 1.062 0.4592 1.679 1.485 0.6284 1.011 0.8221 2.466zm-6.832 0.9095q0.1955 1.469 0.8729 2.246 0.6756 0.7642 1.921 0.5983 1.272-0.1693 1.711-1.082 0.4373-0.9257 0.2418-2.394-0.1973-1.482-0.8598-2.248-0.6625-0.7659-1.921-0.5983-1.259 0.1676-1.711 1.082-0.4522 0.9143-0.2549 2.396z"/><path d="m104.7 33.91-1.971 0.01908-0.0914-9.445 5.41-0.05237 0.0159 1.64-3.439 0.03329 0.0236 2.434 3.201-0.03099 0.0159 1.64-3.201 0.03099z"/><path d="m117.7 25.32q1.806 0.2638 2.516 1.17 0.725 0.8947 0.5262 2.256-0.1185 0.8116-0.564 1.482-0.4436 0.6572-1.305 0.9726-0.8485 0.3173-2.21 0.1185l-0.8509-0.1243-0.4855 3.325-1.977-0.2886 1.365-9.347zm-0.3418 1.608-0.9032-0.1319-0.4052 2.775 0.6545 0.09558q0.8378 0.1223 1.37-0.1342 0.5471-0.2677 0.6561-1.014 0.1988-1.361-1.372-1.591z"/><path d="m129 37.62-1.923-0.54 1.102-3.923-3.604-1.012-1.102 3.923-1.923-0.54 2.554-9.094 1.923 0.54-1.001 3.566 3.604 1.012 1.001-3.566 1.923 0.54z"/><path d="m141.1 37.55q-0.5928 1.343-1.484 2.15-0.8736 0.8002-2.027 0.9565t-2.57-0.4686q-1.404-0.6195-2.078-1.582-0.6621-0.9573-0.6667-2.159 8e-3 -1.197 0.6003-2.54 0.5928-1.343 1.466-2.144 0.8857-0.7949 2.034-0.939 1.166-0.1509 2.582 0.4739 1.404 0.6195 2.066 1.577 0.6674 0.9452 0.6599 2.142 0.01 1.19-0.5828 2.534zm-6.306-2.782q-0.5981 1.356-0.4248 2.372 0.1787 1.004 1.329 1.512 1.174 0.518 2.024-0.03233 0.8554-0.5624 1.454-1.918 0.6034-1.368 0.4369-2.367-0.1666-0.9989-1.329-1.512-1.162-0.5127-2.024 0.03233-0.8622 0.545-1.466 1.913z"/><path d="m143.6 44.59-1.716-1.023 3.984-6.681-2.204-1.315 0.8538-1.432 6.124 3.652-0.8538 1.432-2.204-1.315z"/><path d="m156.5 48.1q-0.9027 1.158-1.964 1.723-1.043 0.5628-2.199 0.4328-1.157-0.13-2.377-1.082-1.21-0.9434-1.629-2.041-0.4084-1.09-0.1195-2.257 0.2994-1.159 1.202-2.317 0.9027-1.158 1.945-1.721 1.053-0.5547 2.201-0.4143 1.167 0.1381 2.388 1.09 1.21 0.9434 1.619 2.033 0.4166 1.079 0.1172 2.238-0.2808 1.157-1.184 2.315zm-5.436-4.237q-0.9109 1.169-0.9908 2.197-0.0718 1.017 0.9194 1.79 1.012 0.7889 1.971 0.4627 0.9669-0.3366 1.878-1.505 0.919-1.179 1.001-2.188 0.0823-1.009-0.9194-1.79-1.002-0.7807-1.971-0.4627t-1.888 1.497z"/><path d="m161.3 52.08 2.605 2.689-3.515 3.406q-0.6961-0.3571-1.362-0.8353-0.6569-0.4687-1.366-1.2-1.473-1.52-1.372-3.202 0.1012-1.682 1.811-3.34 1.064-1.031 2.239-1.378 1.184-0.3369 2.376 0.03728 1.192 0.3742 2.296 1.514 0.5248 0.5415 0.9171 1.174 0.3924 0.633 0.6166 1.245l-1.61 0.639q-0.1423-0.47-0.4245-0.9703t-0.7057-0.9373q-0.6076-0.627-1.344-0.8163-0.7269-0.1798-1.498 0.07005-0.7524 0.2502-1.455 0.9314-0.665 0.6445-1.003 1.322-0.3381 0.6777-0.2551 1.353 0.0925 0.6657 0.7001 1.293 0.2946 0.304 0.5257 0.4854 0.2402 0.1909 0.4532 0.3346l1.416-1.372-1.243-1.283z"/><path d="m170.7 56.73q1.158 1.546 1.145 2.697-6e-3 1.162-1.149 2.018-0.5187 0.3887-1.061 0.4811-0.5239 0.09504-1.045-0.02688-0.5027-0.1193-0.9497-0.3629l-1.626 4.69-1.333-1.779 1.552-3.973-0.6426-0.8575-2.901 2.174-1.198-1.599 7.559-5.664zm-1.4 0.8673-0.3649-0.487-2.043 1.531 0.3887 0.5187q0.595 0.794 1.114 0.9344 0.5265 0.151 1.045-0.2377 0.5399-0.4046 0.4846-0.9417-0.0368-0.5345-0.6239-1.318z"/><path d="m169.5 72.29 1.611-1.713-1.706-2.986-2.294 0.5185-1.07-1.872 9.89-1.811 1.214 2.125-6.575 7.612zm4.399-4.647q0.1624-0.169 0.4086-0.4315 0.2461-0.2625 0.5038-0.5316 0.2576-0.2691 0.4545-0.4578-0.2625 0.07383-0.6662 0.1674-0.3856 0.09844-0.7482 0.1838-0.3446 0.09024-0.4972 0.1165l-2.241 0.5037 1.221 2.136z"/><path d="m180.9 74.4q0.7067 1.683 0.2974 2.759-0.392 1.083-1.661 1.615-0.7563 0.3175-1.56 0.282-0.7918-0.04062-1.507-0.6157-0.7098-0.5629-1.242-1.831l-0.3328-0.7929-3.098 1.301-0.7732-1.842 8.709-3.656zm-1.554 0.5374-0.3533-0.8417-2.586 1.086 0.256 0.6099q0.3277 0.7807 0.8222 1.104 0.5117 0.3304 1.207 0.0385 1.269-0.5326 0.6541-1.996z"/><path d="m176.2 90.44-0.5298-1.926 3.929-1.081-0.993-3.61-3.929 1.081-0.5298-1.926 9.107-2.505 0.5298 1.926-3.572 0.9824 0.993 3.61 3.572-0.9824 0.5298 1.926z"/><path d="m182.6 94.93 4.127 1.409 0.3011 2.135-6.149-2.299-3.642 0.5136-0.2771-1.965 3.576-0.5043 5.339-3.919 0.303 2.148z"/></g></svg>
